<svg width="16" height="16" viewBox="0 0 16 16" fill="none" xmlns="http://www.w3.org/2000/svg">
<path d="M3.89805 8.84275C3.58432 8.84275 3.34903 8.60754 3.34903 8.29394C3.34903 7.98823 3.58432 7.75302 3.89805 7.75302H7.45099V3.01029C7.45099 2.70455 7.68631 2.46938 7.99217 2.46938C8.29803 2.46938 8.54118 2.70455 8.54118 3.01029V8.29394C8.54118 8.60754 8.29803 8.84275 7.99217 8.84275H3.89805ZM8 15.9921C12.3765 15.9921 16 12.3626 16 7.99605C16 3.62175 12.3687 0 7.99217 0C3.62354 0 0 3.62175 0 7.99605C0 12.3626 3.63138 15.9921 8 15.9921Z" fill="#A8A8AE"/>
</svg>
